<svg width="1020" height="280" viewBox="0 0 1020 280" fill="none" xmlns="http://www.w3.org/2000/svg">
<ellipse cx="87.5" cy="165" rx="87.5" ry="87" fill="#FD483E"/>
<ellipse opacity="0.5" cx="280.5" cy="165" rx="87.5" ry="87" fill="#012644"/>
<circle cx="280" cy="165" r="50" fill="white"/>
<circle cx="87" cy="165" r="50" fill="white"/>
<ellipse cx="85.5085" cy="30" rx="30.5085" ry="30" fill="#FD483E"/>
<ellipse cx="279.508" cy="30" rx="30.5085" ry="30" fill="#012644"/>
<rect x="232.272" y="239.435" width="175.505" height="38" rx="19" transform="rotate(-135 232.272 239.435)" fill="#FD483E"/>
<rect x="259.101" y="212.264" width="184.428" height="37" rx="18.5" transform="rotate(-135 259.101 212.264)" fill="white"/>
<rect x="220.614" y="279.777" width="176.333" height="37" transform="rotate(-135 220.614 279.777)" fill="white"/>
<path d="M421.16 205.32C412.28 205.32 404.8 201.6 398.72 194.16C392.64 186.72 389.6 177.6 389.6 166.8C389.6 153.6 393.24 142.48 400.52 133.44C407.88 124.4 416.88 119.88 427.52 119.88C431.68 119.88 435.52 120.32 439.04 121.2C442.64 122 445.2 122.84 446.72 123.72L448.88 125.04L440.72 141.72C438.88 140.12 436.28 138.64 432.92 137.28C429.56 135.84 426.52 135.12 423.8 135.12C418.28 135.12 413.84 137.4 410.48 141.96C407.2 146.52 405.56 153.04 405.56 161.52C405.56 169.92 407.28 176.84 410.72 182.28C414.16 187.64 418.84 190.32 424.76 190.32C428.6 190.32 432.08 189.12 435.2 186.72C438.32 184.32 440.52 181.12 441.8 177.12L451.76 182.88C449.12 189.92 445.08 195.44 439.64 199.44C434.2 203.36 428.04 205.32 421.16 205.32ZM494.094 173.64C494.094 168.12 493.614 164.44 492.654 162.6C491.694 160.76 489.454 159.84 485.934 159.84C482.414 159.84 478.414 161.24 473.934 164.04V172.8L475.254 201L459.054 204L460.494 174.84L459.054 114.12L475.494 111.12L473.934 142.2V156.24C475.134 154.64 476.494 153.08 478.014 151.56C479.534 150.04 481.894 148.32 485.094 146.4C488.294 144.48 491.694 143.52 495.294 143.52C498.974 143.52 502.054 144.96 504.534 147.84C507.014 150.64 508.254 154.48 508.254 159.36L507.534 172.8L508.854 201.6L492.654 204.6L494.094 173.64ZM534.101 204C529.381 204 525.501 202.52 522.461 199.56C519.501 196.52 518.021 192.48 518.021 187.44C518.021 182.32 520.341 177.92 524.981 174.24C529.621 170.48 535.261 168.6 541.901 168.6H550.061V166.56C550.061 162.64 549.261 159.96 547.661 158.52C546.061 157.08 543.061 156.36 538.661 156.36C536.821 156.36 534.621 156.76 532.061 157.56C529.581 158.28 526.781 159.44 523.661 161.04L520.181 151.56C523.621 149.16 527.781 147 532.661 145.08C537.621 143.16 541.701 142.2 544.901 142.2C557.461 142.2 563.741 148.28 563.741 160.44V183.96C563.741 188.44 565.141 193.44 567.941 198.96L555.221 204.36C553.221 200.52 551.741 197.08 550.781 194.04C546.381 200.68 540.821 204 534.101 204ZM539.141 191.76C542.341 191.76 545.981 190.12 550.061 186.84V178.8C545.821 177.84 542.381 177.36 539.741 177.36C534.701 177.36 532.181 179.6 532.181 184.08C532.181 186.4 532.821 188.28 534.101 189.72C535.381 191.08 537.061 191.76 539.141 191.76ZM577.031 146.04L591.551 142.92C592.271 149.08 592.751 154.92 592.991 160.44C600.271 149.16 607.111 143.52 613.511 143.52L612.191 162.24C607.551 162.24 603.871 162.68 601.151 163.56C598.511 164.36 595.791 166 592.991 168.48V172.8L594.311 201L578.231 204L579.671 174.84C579.351 164.12 578.471 154.52 577.031 146.04ZM637.204 142.92L635.764 172.8L637.084 201L621.004 204L622.444 174.84L621.124 145.92L637.204 142.92ZM620.284 125.4C620.284 122.68 621.324 120.28 623.404 118.2C625.484 116.04 627.884 114.96 630.604 114.96C633.324 114.96 635.404 115.72 636.844 117.24C638.284 118.68 639.004 120.88 639.004 123.84C639.004 126.8 637.964 129.36 635.884 131.52C633.884 133.6 631.524 134.64 628.804 134.64C626.164 134.64 624.084 133.76 622.564 132C621.044 130.24 620.284 128.04 620.284 125.4ZM655.101 145.92V132.84L671.301 129.72L669.741 145.92H684.261L682.941 155.76H669.261L668.661 180.84C668.661 184.6 669.021 187.12 669.741 188.4C670.461 189.6 671.781 190.2 673.701 190.2C675.621 190.2 678.181 189.76 681.381 188.88L682.101 197.4C676.821 201.8 672.181 204 668.181 204C664.181 204 660.901 202.56 658.341 199.68C655.781 196.72 654.501 192.88 654.501 188.16L655.221 174.72L655.101 155.76H646.821L648.141 145.92H655.101ZM694.757 227.16L707.117 199.44L698.237 175.2L686.117 146.04L702.077 143.04L709.757 168.6L713.717 180.72H715.277L718.157 171.96L726.797 142.92L741.557 144.72L720.317 200.52L710.237 230.4L694.757 227.16ZM777.058 205.32C768.178 205.32 760.698 201.6 754.618 194.16C748.538 186.72 745.498 177.6 745.498 166.8C745.498 153.6 749.138 142.48 756.418 133.44C763.778 124.4 772.778 119.88 783.418 119.88C787.578 119.88 791.418 120.32 794.938 121.2C798.538 122 801.098 122.84 802.618 123.72L804.778 125.04L796.618 141.72C794.778 140.12 792.178 138.64 788.818 137.28C785.458 135.84 782.418 135.12 779.698 135.12C774.178 135.12 769.738 137.4 766.378 141.96C763.098 146.52 761.458 153.04 761.458 161.52C761.458 169.92 763.178 176.84 766.618 182.28C770.058 187.64 774.738 190.32 780.658 190.32C784.498 190.32 787.978 189.12 791.098 186.72C794.218 184.32 796.418 181.12 797.698 177.12L807.658 182.88C805.018 189.92 800.978 195.44 795.538 199.44C790.098 203.36 783.938 205.32 777.058 205.32ZM849.992 173.64C849.992 168.12 849.512 164.44 848.552 162.6C847.592 160.76 845.352 159.84 841.832 159.84C838.312 159.84 834.312 161.24 829.832 164.04V172.8L831.152 201L814.952 204L816.392 174.84L814.952 114.12L831.392 111.12L829.832 142.2V156.24C831.032 154.64 832.392 153.08 833.912 151.56C835.432 150.04 837.792 148.32 840.992 146.4C844.192 144.48 847.592 143.52 851.192 143.52C854.872 143.52 857.952 144.96 860.432 147.84C862.912 150.64 864.152 154.48 864.152 159.36L863.432 172.8L864.752 201.6L848.552 204.6L849.992 173.64ZM889.999 204C885.279 204 881.399 202.52 878.359 199.56C875.399 196.52 873.919 192.48 873.919 187.44C873.919 182.32 876.239 177.92 880.879 174.24C885.519 170.48 891.159 168.6 897.799 168.6H905.959V166.56C905.959 162.64 905.159 159.96 903.559 158.52C901.959 157.08 898.959 156.36 894.559 156.36C892.719 156.36 890.519 156.76 887.959 157.56C885.479 158.28 882.679 159.44 879.559 161.04L876.079 151.56C879.519 149.16 883.679 147 888.559 145.08C893.519 143.16 897.599 142.2 900.799 142.2C913.359 142.2 919.639 148.28 919.639 160.44V183.96C919.639 188.44 921.039 193.44 923.839 198.96L911.119 204.36C909.119 200.52 907.639 197.08 906.679 194.04C902.279 200.68 896.719 204 889.999 204ZM895.039 191.76C898.239 191.76 901.879 190.12 905.959 186.84V178.8C901.719 177.84 898.279 177.36 895.639 177.36C890.599 177.36 888.079 179.6 888.079 184.08C888.079 186.4 888.719 188.28 889.999 189.72C891.279 191.08 892.959 191.76 895.039 191.76ZM950.329 142.92L948.889 172.8L950.209 201L934.129 204L935.569 174.84L934.249 145.92L950.329 142.92ZM933.409 125.4C933.409 122.68 934.449 120.28 936.529 118.2C938.609 116.04 941.009 114.96 943.729 114.96C946.449 114.96 948.529 115.72 949.969 117.24C951.409 118.68 952.129 120.88 952.129 123.84C952.129 126.8 951.089 129.36 949.009 131.52C947.009 133.6 944.649 134.64 941.929 134.64C939.289 134.64 937.209 133.76 935.689 132C934.169 130.24 933.409 128.04 933.409 125.4ZM998.346 173.64C998.346 168.12 997.866 164.44 996.906 162.6C995.946 160.76 993.706 159.84 990.186 159.84C986.666 159.84 982.666 161.24 978.186 164.04V172.8L979.506 201L963.426 204L964.866 174.84C964.546 164.12 963.666 154.52 962.226 146.04L976.746 142.92C977.306 147.56 977.706 152.08 977.946 156.48C979.146 154.88 980.506 153.32 982.026 151.8C983.546 150.2 985.946 148.44 989.226 146.52C992.506 144.52 995.946 143.52 999.546 143.52C1003.23 143.52 1006.31 144.96 1008.79 147.84C1011.27 150.64 1012.51 154.48 1012.51 159.36L1011.79 172.8L1013.11 201.6L996.906 204.6L998.346 173.64Z" fill="black"/>
</svg>
