<svg width="1724" height="280" viewBox="0 0 1724 280" fill="none" xmlns="http://www.w3.org/2000/svg">
<ellipse cx="87.5" cy="165.131" rx="87.5" ry="87.0693" fill="#FF0D00"/>
<circle cx="280.5" cy="165.5" r="87.5" fill="#012644"/>
<ellipse cx="280" cy="165.131" rx="50" ry="50.0398" fill="#E3EDF7"/>
<ellipse cx="87" cy="165.131" rx="50" ry="50.0398" fill="#E3EDF7"/>
<ellipse cx="85.5085" cy="30.0239" rx="30.5085" ry="30.0239" fill="#FF0D00"/>
<ellipse cx="279.508" cy="30.0239" rx="30.5085" ry="30.0239" fill="#012644"/>
<rect width="175.575" height="38.0151" rx="19.0076" transform="matrix(-0.706825 -0.707388 0.706825 -0.707388 232.272 239.626)" fill="#FF0D00"/>
<rect width="184.502" height="37.0147" rx="18.5074" transform="matrix(-0.706825 -0.707388 0.706825 -0.707388 259.101 212.433)" fill="#E3EDF7"/>
<rect width="176.403" height="37.0147" transform="matrix(-0.706825 -0.707388 0.706825 -0.707388 220.614 280)" fill="#E3EDF7"/>
<path d="M465.92 93.3135C479.707 93.3135 492.1 96.1735 503.1 101.894L497.82 126.754L495.4 127.854C491 124.774 486.16 122.354 480.88 120.594C475.6 118.834 470.173 117.954 464.6 117.954C441.28 117.954 429.62 133.28 429.62 163.934C429.62 180.507 432.627 192.974 438.64 201.334C444.8 209.547 453.747 213.654 465.48 213.654C470.907 213.654 476.48 212.847 482.2 211.234C488.067 209.474 493.347 207.127 498.04 204.194L500.68 205.734L498.26 231.034C487.113 236.167 475.38 238.734 463.06 238.734C441.94 238.734 425.807 232.574 414.66 220.254C403.66 207.934 398.16 190.26 398.16 167.234C398.16 143.767 404.027 125.58 415.76 112.674C427.64 99.7669 444.36 93.3135 465.92 93.3135ZM621.372 201.114L622.472 236.754H594.752L595.852 203.754L595.632 192.974L570.772 192.754L548.552 193.194L548.332 201.114L549.432 236.754H521.712L522.812 203.754L521.712 125.654H549.872L548.992 169.654L572.532 170.094L595.412 169.874L594.752 125.654H622.912L621.372 201.114ZM749.306 236.754H721.366L718.286 220.694L716.306 214.314L693.866 214.094L674.066 214.534L672.526 219.154L669.226 236.754H642.166L681.106 125.654H713.886L749.306 236.754ZM710.366 193.414L697.826 150.954H696.066L681.326 193.414L695.626 193.634L710.366 193.414ZM837.151 192.974C846.978 207.2 856.144 219.667 864.651 230.374L864.431 233.454C855.338 236.24 846.391 237.927 837.591 238.514L833.631 235.874C825.418 221.647 819.038 209.987 814.491 200.894H797.551V201.114L798.651 236.754H770.931L772.031 203.754L770.931 125.654L818.891 125.434C831.358 125.434 840.964 128.367 847.711 134.234C854.604 139.954 858.051 148.167 858.051 158.874C858.051 165.767 856.218 172.22 852.551 178.234C848.884 184.1 843.751 189.014 837.151 192.974ZM797.991 179.774L814.491 180.654C819.478 179.04 823.144 176.694 825.491 173.614C827.838 170.534 829.011 166.574 829.011 161.734C829.011 156.454 827.471 152.567 824.391 150.074C821.311 147.434 816.471 145.967 809.871 145.674L798.651 146.114L797.991 179.774ZM912.922 201.114L914.022 236.754H886.302L887.402 203.754L886.302 125.654H914.462L912.922 201.114ZM1023.24 127.854L1021.7 148.974L999.264 147.434H992.884L992.224 201.114L993.104 236.754H965.604L966.704 203.754L966.264 147.434H959.884L937.004 148.974L935.244 146.774L936.784 125.654H1021.7L1023.24 127.854ZM1094.15 206.614L1095.25 236.754H1067.53L1068.85 206.614L1068.63 201.114L1031.01 125.654H1060.49L1062.91 133.794L1081.61 172.734H1083.15L1103.83 134.894L1107.35 125.654H1135.95L1094.37 200.454L1094.15 206.614ZM1203.05 93.3135C1216.84 93.3135 1229.23 96.1735 1240.23 101.894L1234.95 126.754L1232.53 127.854C1228.13 124.774 1223.29 122.354 1218.01 120.594C1212.73 118.834 1207.3 117.954 1201.73 117.954C1178.41 117.954 1166.75 133.28 1166.75 163.934C1166.75 180.507 1169.76 192.974 1175.77 201.334C1181.93 209.547 1190.88 213.654 1202.61 213.654C1208.04 213.654 1213.61 212.847 1219.33 211.234C1225.2 209.474 1230.48 207.127 1235.17 204.194L1237.81 205.734L1235.39 231.034C1224.24 236.167 1212.51 238.734 1200.19 238.734C1179.07 238.734 1162.94 232.574 1151.79 220.254C1140.79 207.934 1135.29 190.26 1135.29 167.234C1135.29 143.767 1141.16 125.58 1152.89 112.674C1164.77 99.7669 1181.49 93.3135 1203.05 93.3135ZM1358.5 201.114L1359.6 236.754H1331.88L1332.98 203.754L1332.76 192.974L1307.9 192.754L1285.68 193.194L1285.46 201.114L1286.56 236.754H1258.84L1259.94 203.754L1258.84 125.654H1287L1286.12 169.654L1309.66 170.094L1332.54 169.874L1331.88 125.654H1360.04L1358.5 201.114ZM1486.43 236.754H1458.49L1455.41 220.694L1453.43 214.314L1430.99 214.094L1411.19 214.534L1409.65 219.154L1406.35 236.754H1379.29L1418.23 125.654H1451.01L1486.43 236.754ZM1447.49 193.414L1434.95 150.954H1433.19L1418.45 193.414L1432.75 193.634L1447.49 193.414ZM1534.68 201.114L1535.78 236.754H1508.06L1509.16 203.754L1508.06 125.654H1536.22L1534.68 201.114ZM1668.95 201.554L1670.05 236.754H1639.91L1595.47 167.894H1593.93L1593.71 197.814L1594.59 236.754H1569.51L1570.61 204.194L1569.51 125.654H1599.43L1643.87 194.514H1645.85L1644.97 126.754L1670.49 124.994L1668.95 201.554Z" fill="black"/>
</svg>
