<svg width="1073" height="280" viewBox="0 0 1073 280" fill="none" xmlns="http://www.w3.org/2000/svg">
<ellipse cx="87.5" cy="165.131" rx="87.5" ry="87.0693" fill="#FF0D00"/>
<circle cx="280.5" cy="165.5" r="87.5" fill="#012644"/>
<ellipse cx="280" cy="165.131" rx="50" ry="50.0398" fill="#E3EDF7"/>
<ellipse cx="87" cy="165.131" rx="50" ry="50.0398" fill="#E3EDF7"/>
<ellipse cx="85.5085" cy="30.0239" rx="30.5085" ry="30.0239" fill="#FF0D00"/>
<ellipse cx="279.508" cy="30.0239" rx="30.5085" ry="30.0239" fill="#012644"/>
<rect width="175.575" height="38.0151" rx="19.0076" transform="matrix(-0.706825 -0.707388 0.706825 -0.707388 232.272 239.626)" fill="#FF0D00"/>
<rect width="184.502" height="37.0147" rx="18.5074" transform="matrix(-0.706825 -0.707388 0.706825 -0.707388 259.101 212.433)" fill="#E3EDF7"/>
<rect width="176.403" height="37.0147" transform="matrix(-0.706825 -0.707388 0.706825 -0.707388 220.614 280)" fill="#E3EDF7"/>
<path d="M424.64 119.48C432.72 119.48 439.72 121.4 445.64 125.24L443.72 134L442.64 134.24C437.28 129.76 431.12 127.52 424.16 127.52C416.56 127.52 410.72 130.16 406.64 135.44C402.56 140.64 400.52 148.28 400.52 158.36C400.52 168.52 402.56 176.28 406.64 181.64C410.72 187 416.48 189.68 423.92 189.68C427.44 189.68 430.92 189.04 434.36 187.76C437.88 186.48 441.08 184.68 443.96 182.36L445.16 182.96L444.32 192.08C437.36 195.92 430.28 197.84 423.08 197.84C412.76 197.84 404.76 194.52 399.08 187.88C393.4 181.16 390.56 171.6 390.56 159.2C390.56 146.48 393.52 136.68 399.44 129.8C405.36 122.92 413.76 119.48 424.64 119.48ZM508.824 178.28L509.064 197H500.184L500.544 179L500.424 170.84L467.904 170.96L467.784 178.28L468.024 197H459.144L459.504 179L459.144 137.24H468.144L467.904 162.92L484.104 163.04L500.424 162.92L500.184 137.24H509.184L508.824 178.28ZM577.188 197H568.188L566.748 190.52L563.628 181.64L549.348 181.52L536.628 181.64L533.388 190.04L531.708 197H522.828L545.868 137.24H556.188L577.188 197ZM561.108 174.32L551.148 146H550.428L539.508 174.32L550.068 174.44L561.108 174.32ZM619.514 172.88C624.394 180.32 629.794 187.64 635.714 194.84L635.594 196.04C632.234 197.08 629.474 197.68 627.314 197.84L625.754 196.88C619.674 187.68 615.074 180.44 611.954 175.16L600.674 175.28V178.28L600.914 197H592.034L592.394 179L592.034 137.24L612.434 137.12C618.754 137.12 623.594 138.6 626.954 141.56C630.394 144.52 632.114 148.8 632.114 154.4C632.114 158.48 630.994 162.12 628.754 165.32C626.594 168.52 623.514 171.04 619.514 172.88ZM600.794 167.84L612.074 168.2C619.194 166.2 622.754 161.84 622.754 155.12C622.754 151.6 621.714 148.96 619.634 147.2C617.554 145.44 614.394 144.48 610.154 144.32L600.914 144.44L600.794 167.84ZM660.206 178.28L660.446 197H651.566L651.926 179L651.566 137.24H660.566L660.206 178.28ZM718.78 137.96L718.18 145.52L707.02 144.68H701.02L700.66 178.28L701.02 197H692.02L692.38 179L692.14 144.68H686.14L674.74 145.52L674.02 144.68L674.74 137.24H718.3L718.78 137.96ZM754.123 179.84L754.483 197H745.483L745.963 179.84L745.843 176.12L725.563 137.24H735.403L736.603 140.72L750.043 166.4H750.643L765.283 141.08L766.843 137.24H776.443L754.242 176.12L754.123 179.84ZM813.82 119.48C821.9 119.48 828.9 121.4 834.82 125.24L832.9 134L831.82 134.24C826.46 129.76 820.3 127.52 813.34 127.52C805.74 127.52 799.9 130.16 795.82 135.44C791.74 140.64 789.7 148.28 789.7 158.36C789.7 168.52 791.74 176.28 795.82 181.64C799.9 187 805.66 189.68 813.1 189.68C816.62 189.68 820.1 189.04 823.54 187.76C827.06 186.48 830.26 184.68 833.14 182.36L834.34 182.96L833.5 192.08C826.54 195.92 819.46 197.84 812.26 197.84C801.94 197.84 793.94 194.52 788.26 187.88C782.58 181.16 779.74 171.6 779.74 159.2C779.74 146.48 782.7 136.68 788.62 129.8C794.54 122.92 802.94 119.48 813.82 119.48ZM898.003 178.28L898.243 197H889.363L889.723 179L889.603 170.84L857.083 170.96L856.963 178.28L857.203 197H848.323L848.683 179L848.323 137.24H857.323L857.083 162.92L873.283 163.04L889.603 162.92L889.363 137.24H898.363L898.003 178.28ZM966.368 197H957.368L955.928 190.52L952.808 181.64L938.528 181.52L925.808 181.64L922.568 190.04L920.888 197H912.008L935.048 137.24H945.368L966.368 197ZM950.288 174.32L940.328 146H939.608L928.688 174.32L939.248 174.44L950.288 174.32ZM989.854 178.28L990.094 197H981.214L981.574 179L981.214 137.24H990.214L989.854 178.28ZM1061.83 179.12L1061.95 197H1052.35L1020.91 151.4H1020.31L1020.19 177.08L1020.43 197H1012.27L1012.63 179.36L1012.39 137.24H1021.87L1053.31 182.84H1054.15L1053.91 137.6L1062.19 137L1061.83 179.12Z" fill="black"/>
</svg>
